PathFileType	4	(X/Y/Z)	C:\Users\Basilio\Documents\Thesis Gigler\squatting_fais\c3dfiles\038\SJ_pre4\markers_experimental.trc
DataRate	CameraRate	NumFrames	NumMarkers	Units	OrigDataRate	OrigDataStartFrame	OrigNumFrames
200.000000	200.000000	4	61	mm	200.000000	1254	2007
Frame#	Time	FHD			LBHD			RBHD			C7			T10			CLAV			LSHO			LUUPA			LMUPA			LDUPA			LLEP			LMEP			LRAD			LUL			LRFIN			RSHO			RUPA1			RMUPA			RDUPA			RLEP			RMEP			RRAD			RUL			RUFIN			LASI			RASI			USACR			LSACR			RSACR			LTHI1			LTHI2			LTHI3			LTHI4			LLFC			LMFC			LTIB1			LTIB2			LTIB3			LTIB4			LLMAL			LMMAL			LHEE			LMT1			LMT2			LMT5			RTHI			RTHI2			RTHI3			RTHI4			RLFC			RMFC			RTIB1			RTIB2			RTIB3			RTIB4			RLMAL			RMMAL			RHEE			RMT1			RMT2			RMT5			
		X1	Y1	Z1	X2	Y2	Z2	X3	Y3	Z3	X4	Y4	Z4	X5	Y5	Z5	X6	Y6	Z6	X7	Y7	Z7	X8	Y8	Z8	X9	Y9	Z9	X10	Y10	Z10	X11	Y11	Z11	X12	Y12	Z12	X13	Y13	Z13	X14	Y14	Z14	X15	Y15	Z15	X16	Y16	Z16	X17	Y17	Z17	X18	Y18	Z18	X19	Y19	Z19	X20	Y20	Z20	X21	Y21	Z21	X22	Y22	Z22	X23	Y23	Z23	X24	Y24	Z24	X25	Y25	Z25	X26	Y26	Z26	X27	Y27	Z27	X28	Y28	Z28	X29	Y29	Z29	X30	Y30	Z30	X31	Y31	Z31	X32	Y32	Z32	X33	Y33	Z33	X34	Y34	Z34	X35	Y35	Z35	X36	Y36	Z36	X37	Y37	Z37	X38	Y38	Z38	X39	Y39	Z39	X40	Y40	Z40	X41	Y41	Z41	X42	Y42	Z42	X43	Y43	Z43	X44	Y44	Z44	X45	Y45	Z45	X46	Y46	Z46	X47	Y47	Z47	X48	Y48	Z48	X49	Y49	Z49	X50	Y50	Z50	X51	Y51	Z51	X52	Y52	Z52	X53	Y53	Z53	X54	Y54	Z54	X55	Y55	Z55	X56	Y56	Z56	X57	Y57	Z57	X58	Y58	Z58	X59	Y59	Z59	X60	Y60	Z60	X61	Y61	Z61	

1255	6.27	-132.4443664550782	1261.617797851563	-922.4495239257815	-270.4974670410157	1168.9345703125	-977.002380371094	-254.2957611083985	1163.246337890625	-831.1618652343752	-297.5672302246094	1070.917358398438	-899.7412109375002	-491.5164489746095	876.2808227539065	-891.7866210937502	-192.2621154785157	969.6587524414065	-914.3365478515627	-196.2322692871094	1031.54931640625	-1068.14990234375	-282.1931457519532	915.5206298828127	-1257.19482421875	-277.4075317382813	867.380798339844	-1240.304077148438	-307.0888977050782	859.7094726562502	-1290.103637695313	-339.1315002441407	807.1215820312502	-1308.817016601563	-414.7434082031251	843.951354980469	-1316.325805664063	-500.5402832031251	709.9234008789064	-1075.876831054688	-461.4034729003907	653.7006225585939	-1107.191772460938	-497.6704101562501	667.4614868164064	-1004.453369140625	-170.1497344970703	1012.73095703125	-760.1215820312501	-208.7413787841797	886.508239746094	-573.8545532226564	-225.1586914062501	842.1806640625002	-582.9020385742189	-235.251449584961	844.2212524414065	-524.1410522460939	-273.3036193847657	787.9536132812502	-489.7467651367189	-341.1720275878907	833.0455322265627	-463.204559326172	-473.7691650390626	688.1336669921876	-660.4708862304689	-424.0906982421876	636.8156738281251	-654.6922607421876	-476.2237548828126	680.9967651367189	-736.4628906250001	nan	nan	nan	-479.7064819335939	672.5062866210939	-756.6065673828126	-618.3678588867189	769.8723754882815	-877.4989013671877	-649.2937622070314	749.1023559570314	-902.2280883789065	-640.8477172851564	750.8579711914064	-845.206726074219	-439.8587036132814	558.0134887695314	-1163.322875976563	-359.7164611816407	547.4812011718751	-1197.942016601563	-330.7281494140626	579.1046752929689	-1173.880859375	-334.5925903320313	493.0789489746095	-1211.233520507813	-291.7197875976563	455.059051513672	-1216.695190429688	-250.3166809082032	444.8449096679689	-1114.22216796875	-278.2280883789063	281.7788696289063	-1134.183471679688	-351.6223754882813	254.9679870605469	-1177.041381835938	-315.6948852539063	241.3826751708985	-1155.950073242188	-345.1792907714844	177.097640991211	-1107.508544921875	-472.0556030273439	82.38317108154298	-1089.154418945313	-412.7720336914064	97.47137451171878	-1029.032592773438	-507.5328369140626	44.71417236328126	-1021.244873046875	-307.0628662109376	46.70387268066407	-1088.978515625	-319.2805480957032	50.85541152954103	-1138.03076171875	-372.9539489746094	31.32162666320801	-1169.509033203125	-438.2861633300782	543.8605346679689	-648.9047851562501	-373.8794860839844	542.6574707031251	-631.0930175781251	-353.2271423339844	570.5419311523439	-635.0760498046876	-324.5422058105469	471.2376708984376	-630.7764282226564	-233.6674346923829	420.0311889648439	-626.6488037109376	-216.0390167236329	422.4855041503907	-737.7108764648439	-248.0412292480469	260.3061218261719	-671.1967773437501	-360.7696228027344	225.4845886230469	-657.5968627929689	-316.9664611816407	208.4060211181641	-664.8321533203126	-325.7017211914063	160.4737854003907	-698.6414184570314	-445.2149353027345	88.33093261718751	-696.2543334960939	-398.0040893554689	86.67679595947267	-768.1504516601565	-494.2097778320314	40.32048034667969	-773.827087402344	-290.9043273925782	47.70854568481446	-691.3435058593751	-308.8787231445313	53.81343078613283	-649.5090332031251	-364.3655090332032	36.29690170288087	-619.7744750976564	
1256	6.275	-132.4497528076172	1261.29248046875	-922.508483886719	-270.4421691894532	1168.758422851563	-976.9918212890627	-254.1152343750001	1162.94287109375	-831.1341552734377	-297.4125976562501	1070.614013671875	-899.7768554687502	-491.4950256347657	876.1135864257815	-891.829284667969	-192.1436309814454	969.4665527343752	-914.3587036132815	-196.1666259765626	1031.384399414063	-1068.211059570313	-282.0100708007813	915.381286621094	-1257.270874023438	-277.2987670898438	867.1718750000002	-1240.320922851563	-307.0603942871094	859.3737792968752	-1290.060302734375	-339.0133361816407	806.8584594726565	-1308.970825195313	-414.6653442382814	843.7363891601565	-1316.368408203125	-500.543670654297	709.8083496093751	-1075.941772460938	-461.4580688476564	653.5477905273439	-1107.282348632813	-497.6177368164064	667.3505859375001	-1004.496459960938	-170.0596618652344	1012.566955566406	-760.2226562500001	-208.6899719238282	886.3631591796877	-573.9147338867189	-225.0776519775391	841.9604492187502	-582.9614868164064	-235.1641235351563	843.9419555664065	-524.1828613281251	-273.2389221191407	787.7265625000002	-489.7966613769532	-341.0556335449219	832.795593261719	-463.2672119140626	-473.7259826660157	688.0090942382814	-660.5144653320314	-424.1592407226564	636.6450805664064	-654.6640625000001	-475.0729370117189	681.0876464843751	-736.1065673828126	nan	nan	nan	-479.7085876464845	672.3829956054689	-756.6491088867189	-618.3027954101564	769.7307128906252	-877.5622558593752	-649.9736328125001	749.5333862304689	-902.211608886719	-643.6499023437501	752.5198364257814	-845.857360839844	-439.8664855957032	557.9772338867189	-1163.367797851563	-359.7575683593751	547.4296875000001	-1197.972412109375	-330.7276000976563	579.0455932617189	-1173.921264648438	-334.6645507812501	493.0638732910157	-1211.293579101563	-291.7627563476563	455.0726318359376	-1216.790771484375	-250.3262634277344	444.6958312988282	-1114.400756835938	-278.0705871582032	282.0713500976563	-1133.979858398438	-351.5731811523438	254.9657745361329	-1177.047729492188	-315.6233520507813	241.3713073730469	-1156.0224609375	-345.1309509277344	177.0680847167969	-1107.525390625	-472.0508728027345	82.37580871582033	-1089.143188476563	-412.7122497558595	97.48306274414065	-1029.034423828125	-507.533660888672	44.73353958129884	-1021.233459472656	-307.0371704101563	46.64208221435548	-1088.96826171875	-319.3132324218751	50.90221023559572	-1138.0322265625	-372.9498901367188	31.30246162414551	-1169.511108398438	-438.2951049804689	543.7718505859376	-648.9556884765626	-373.9413452148438	542.6346435546876	-631.1294555664064	-353.2842407226563	570.4775390625001	-635.1309204101564	-324.2679138183594	471.4949035644532	-630.5635986328126	-233.6543731689454	420.0241088867189	-626.6859130859376	-216.1798095703126	422.3883361816407	-737.6814575195314	-248.0534210205079	260.2973632812501	-671.2604980468751	-360.8100280761719	225.4727172851563	-657.6232299804689	-316.9804687500001	208.3638153076172	-664.8507080078126	-325.6633911132813	160.4597625732422	-698.6212158203126	-445.2133178710939	88.30386352539064	-696.2643432617189	-397.965057373047	86.67507934570314	-768.1252441406252	-494.2280578613282	40.28570556640626	-773.8435668945315	-290.9303588867188	47.71472167968751	-691.3467407226564	-308.8788146972657	53.82340240478517	-649.5115356445314	-364.3034362792969	36.30207824707032	-619.7586059570314	
1257	6.28	-132.4015045166016	1261.010131835938	-922.5051269531252	-270.3374938964844	1168.903076171875	-976.9510498046877	-254.0041809082032	1162.596069335938	-831.069763183594	-297.3437500000001	1070.389038085938	-899.7862548828127	-491.4346008300782	875.9004516601565	-891.791442871094	-192.0618591308594	969.2424926757815	-914.396911621094	-196.0699615478516	1031.131469726563	-1068.30126953125	-281.8208923339844	915.1589965820315	-1257.311401367188	-277.2085876464844	866.9656372070315	-1240.29150390625	-307.0055236816407	859.0269165039065	-1290.021362304688	-338.9047851562501	806.6005859375002	-1309.034790039063	-414.5527648925782	843.5072021484377	-1316.38916015625	-500.5441894531251	709.7619018554689	-1075.974975585938	-461.4390869140626	653.3414916992189	-1107.288940429688	-497.6462707519532	667.1849975585939	-1004.477722167969	-169.9742736816407	1012.341369628906	-760.2565917968751	-208.5506134033204	886.1319580078127	-573.9511718750001	-225.0637207031251	841.8273925781252	-583.0294799804689	-235.0677032470704	843.5814208984377	-524.1337280273439	-273.1372375488282	787.5151977539065	-489.8230590820314	-340.9782409667969	832.5224609375002	-463.3192138671876	-473.7322387695314	687.8644409179689	-660.5269775390626	-424.2081909179689	636.5041503906251	-654.7201538085939	-475.1567687988282	680.9786376953126	-736.1413574218751	nan	nan	nan	-480.0350646972657	672.2916259765626	-756.5007324218751	-618.2929687500001	769.6180419921877	-877.5823364257815	-649.9608154296876	749.4603271484376	-902.2883911132815	-643.5129394531251	752.3255615234376	-845.840515136719	-439.8594665527345	557.8814697265626	-1163.455200195313	-359.7414245605469	547.2656250000001	-1198.0576171875	-330.6772155761719	578.9704589843751	-1173.947265625	-334.6763000488282	493.0218200683595	-1211.378662109375	-291.7211608886719	455.029022216797	-1216.864624023438	-250.3546600341797	444.6886291503907	-1114.512817382813	-278.0509948730469	282.0543823242188	-1134.04736328125	-351.6070556640626	254.9271240234376	-1177.079711914063	-315.6158752441407	241.3115692138672	-1156.046020507813	-345.1156921386719	177.0100402832032	-1107.566162109375	-472.0238342285157	82.36196136474611	-1089.134399414063	-412.7520141601564	97.45054626464847	-1029.060791015625	-507.5304260253907	44.72350311279298	-1021.247924804688	-307.0574645996094	46.57976150512696	-1088.984741210938	-319.3058166503907	50.88597869873048	-1138.032592773438	-372.9489440917969	31.31758117675782	-1169.518188476563	-438.3299865722657	543.6571655273439	-649.0330810546876	-373.9656372070313	542.5295410156251	-631.2034301757814	-353.2809753417969	570.4395141601564	-635.1668701171876	-324.2747192382813	471.4764709472657	-630.6033935546876	-233.6515655517579	419.9927368164064	-626.6809692382814	-216.0877380371094	422.4671936035157	-737.7182617187501	-248.0648040771485	260.2889709472657	-671.2961425781251	-360.8063659667969	225.3874206542969	-657.6073608398439	-316.9547424316407	208.3811035156251	-664.8126220703126	-325.6493530273438	160.4669799804688	-698.6650390625001	-445.2150878906251	88.31780242919923	-696.2709960937501	-398.008270263672	86.6687469482422	-768.1580810546877	-494.1585693359376	40.35417556762696	-773.7894287109377	-290.9201049804688	47.68087387084962	-691.3665161132814	-308.9037475585938	53.81819152832033	-649.5408325195314	-364.2573852539063	36.32946777343751	-619.7318725585939	
1258	6.285	-132.2249603271485	1260.989624023438	-922.6473388671877	-270.2938537597657	1168.711059570313	-976.9970703125002	-253.9242248535157	1162.15869140625	-831.0158691406252	-297.3170471191407	1070.135009765625	-899.788024902344	-491.466278076172	875.7026977539065	-891.8572387695315	-192.1128234863282	968.3465576171877	-914.5693359375002	-195.9715118408204	1030.887329101563	-1068.316528320313	-281.6580810546876	914.9182739257815	-1257.313598632813	-277.0677185058594	866.687194824219	-1240.321166992188	-306.9136047363282	858.6182861328127	-1289.996948242188	-338.7889404296876	806.3941040039065	-1309.08740234375	-414.567596435547	843.344421386719	-1316.49658203125	-500.5427856445314	709.6342773437501	-1076.00732421875	-461.5214843750001	653.2113037109376	-1107.327880859375	-497.667205810547	667.0899658203126	-1004.592407226563	-169.8833312988282	1012.097900390625	-760.2875976562501	-208.4582061767579	885.8134765625002	-573.9701538085939	-224.9966125488282	841.6607055664065	-583.1096801757814	-234.9627685546876	843.2769165039065	-524.2424926757814	-273.0502624511719	787.2668457031252	-489.9212951660157	-340.8730773925782	832.2857666015627	-463.3823242187501	-473.7569885253907	687.7383422851564	-660.5819091796876	-424.2250976562501	636.4299926757814	-654.7495727539064	-476.4579162597657	680.7203369140626	-736.6455078125001	nan	nan	nan	-480.0870056152345	672.1135253906251	-756.7089843750001	-618.1203613281251	769.197204589844	-877.7530517578127	-649.8687133789064	749.2542114257814	-902.3782348632815	-643.5903320312501	752.2722778320314	-845.8902587890627	-439.8702392578126	557.8080444335939	-1163.490356445313	-359.7445373535157	547.2323608398439	-1198.0595703125	-330.6813964843751	578.9125366210939	-1173.998901367188	-334.6526184082032	492.9550170898439	-1211.454833984375	-291.7212829589844	455.0307006835939	-1216.953125	-250.3682708740235	444.6342163085939	-1114.521606445313	-278.0509338378907	282.0272521972657	-1134.128051757813	-351.7043457031251	254.8971099853516	-1177.138061523438	-315.6377868652344	241.3015594482422	-1156.101684570313	-345.1017150878907	177.030517578125	-1107.58740234375	-472.059051513672	82.40115356445314	-1089.135498046875	-412.7502746582032	97.45108032226565	-1029.048950195313	-507.5340576171876	44.72859573364259	-1021.234375	-307.0778808593751	46.71340560913087	-1088.9814453125	-319.3551635742188	50.87814712524415	-1138.064208984375	-372.9895629882813	31.29700279235841	-1169.52490234375	-438.3238220214845	543.5881958007814	-649.1160278320314	-373.9488525390626	542.5256958007814	-631.2241210937501	-353.3007812500001	570.3982543945314	-635.1589965820314	-324.2711486816407	471.3932189941407	-630.5982055664064	-233.6455688476563	419.9783935546876	-626.6800537109376	-216.1064147949219	422.4522094726564	-737.7081909179689	-248.0623016357422	260.3417663574219	-671.3443603515626	-360.7901916503907	225.4321899414063	-657.6061401367189	-316.9868774414063	208.352035522461	-664.8522949218751	-325.7283935546876	160.4696044921875	-698.6570434570314	-445.2174377441407	88.31743621826173	-696.2639160156251	-397.9448852539064	86.68389892578126	-768.117126464844	-494.1885986328126	40.3343849182129	-773.798034667969	-290.9047546386719	47.6888542175293	-691.3682861328126	-308.8919982910157	53.81838226318361	-649.4801635742189	-364.3091125488282	36.32626342773438	-619.7460327148439	
